<svg xmlns="http://www.w3.org/2000/svg" width="338.235" height="79.574" viewBox="0 0 338.235 79.574">
  <g id="Group_12769" data-name="Group 12769" transform="translate(-519.68 -59.689)">
    <g id="Group_12766" data-name="Group 12766" transform="translate(519.68 59.689)">
      <path id="Path_3924" data-name="Path 3924" d="M590.055,182.449l-5.314,2.391V165.975l5.314-2.857Z" transform="translate(-569.217 -135.452)" fill="#d95c14"/>
      <g id="Group_12765" data-name="Group 12765" transform="translate(0 0)">
        <path id="Path_3925" data-name="Path 3925" d="M628.262,155.1l-5.314,2.391V138.623l5.314-2.856Z" transform="translate(-596.53 -115.899)" fill="#d95c14"/>
        <path id="Path_3926" data-name="Path 3926" d="M665.029,119.054v19.329l-5.312-2.389-5.315,2.389V119.52l5.315-2.859Z" transform="translate(-619.015 -102.242)" fill="#d95c14"/>
        <path id="Path_3927" data-name="Path 3927" d="M712.131,138.158l-5.314-2.391v18.866l5.314,2.856Z" transform="translate(-656.484 -115.899)" fill="#d95c14"/>
        <path id="Path_3928" data-name="Path 3928" d="M748.387,160.523l-5.314-2.391V177l5.314,2.856Z" transform="translate(-682.402 -131.887)" fill="#d95c14"/>
        <path id="Path_3929" data-name="Path 3929" d="M637.867,226.5l-25.353-14.563-25.207,14.53.038-6.413,25.249-14.582v.042l25.136,14.512Z" transform="translate(-571.051 -165.726)" fill="#d95c14"/>
        <path id="Path_3930" data-name="Path 3930" d="M659.234,259.6h-5.713v-2.524l5.713-3.189Z" transform="translate(-618.385 -200.338)" fill="#d95c14"/>
        <path id="Path_3931" data-name="Path 3931" d="M682.989,259.6h-5.713v-5.713l5.713,3.321Z" transform="translate(-635.367 -200.338)" fill="#d95c14"/>
        <rect id="Rectangle_633" data-name="Rectangle 633" width="5.713" height="5.713" transform="translate(35.229 60.191)" fill="#d95c14"/>
        <rect id="Rectangle_634" data-name="Rectangle 634" width="5.713" height="5.713" transform="translate(41.91 60.191)" fill="#d95c14"/>
        <path id="Path_3932" data-name="Path 3932" d="M609.323,91.321,576.967,67.813a9.015,9.015,0,0,0-10.6,0L534.014,91.321a9.014,9.014,0,0,0-3.274,10.078L543.1,139.436a9.014,9.014,0,0,0,8.573,6.228h40a9.014,9.014,0,0,0,8.572-6.228L612.6,101.4A9.014,9.014,0,0,0,609.323,91.321Zm-3.289,12.211-9.852,30.321a9.013,9.013,0,0,1-8.573,6.228H555.728a9.014,9.014,0,0,1-8.573-6.228L537.3,103.532a9.013,9.013,0,0,1,3.275-10.078L566.37,74.714a9.014,9.014,0,0,1,10.6,0L602.76,93.454A9.014,9.014,0,0,1,606.034,103.532Z" transform="translate(-530.298 -66.091)" fill="#d95c14"/>
      </g>
    </g>
    <g id="Group_12767" data-name="Group 12767" transform="translate(617.484 70.795)">
      <path id="Path_3933" data-name="Path 3933" d="M197.9,413.037a9.267,9.267,0,0,1-3.942-.741,5.828,5.828,0,0,1-2.491-2.17,9.754,9.754,0,0,1-1.3-3.48,25.374,25.374,0,0,1-.387-4.672V398.6h5.456v3.8a13.271,13.271,0,0,0,.516,4.382,1.988,1.988,0,0,0,2.041,1.332,2.232,2.232,0,0,0,1.557-.483,2.651,2.651,0,0,0,.709-1.547,17.078,17.078,0,0,0,.183-2.782,8.49,8.49,0,0,0-.891-3.888,15.675,15.675,0,0,0-2.7-3.651l-2.792-2.878a20.29,20.29,0,0,1-2.094-2.556,11.731,11.731,0,0,1-1.482-3.018,11.879,11.879,0,0,1-.548-3.727,15.227,15.227,0,0,1,.73-5.048,5.794,5.794,0,0,1,2.47-3.125,9.119,9.119,0,0,1,4.769-1.063,8.76,8.76,0,0,1,3.749.7,5.311,5.311,0,0,1,2.3,2.041,9.307,9.307,0,0,1,1.17,3.265,25.14,25.14,0,0,1,.344,4.393v2.342h-5.306v-2.707a18.556,18.556,0,0,0-.183-2.857,3.4,3.4,0,0,0-.677-1.708,1.8,1.8,0,0,0-1.439-.569,2.464,2.464,0,0,0-1.46.4,2.214,2.214,0,0,0-.805,1.224,7.64,7.64,0,0,0-.247,2.137,6.18,6.18,0,0,0,.3,2.04,5.756,5.756,0,0,0,.924,1.654q.623.795,1.547,1.783l3.115,3.372a20.268,20.268,0,0,1,3.48,5,13.251,13.251,0,0,1,1.246,5.8,19.156,19.156,0,0,1-.73,5.7,6.413,6.413,0,0,1-2.449,3.49A8.155,8.155,0,0,1,197.9,413.037Z" transform="translate(-189.741 -374.35)" fill="#013440"/>
      <path id="Path_3934" data-name="Path 3934" d="M288.682,414.408a9.231,9.231,0,0,1-4.79-1.106,6.429,6.429,0,0,1-2.707-3.351,16.058,16.058,0,0,1-.859-5.682v-28.1h5.757v27.99a24.478,24.478,0,0,0,.14,2.792,3.581,3.581,0,0,0,.677,1.869,2.133,2.133,0,0,0,1.761.666,2.186,2.186,0,0,0,1.772-.655,3.412,3.412,0,0,0,.677-1.858,26.806,26.806,0,0,0,.129-2.814v-27.99H297v28.1a16.245,16.245,0,0,1-.849,5.682,6.4,6.4,0,0,1-2.685,3.351A9.172,9.172,0,0,1,288.682,414.408Z" transform="translate(-257.903 -375.721)" fill="#013440"/>
      <path id="Path_3935" data-name="Path 3935" d="M380.022,413.978V376.172h7.153l5.37,27.624,5.048-27.624h7.2v37.806h-5.134V399.887l.215-12.931-5.091,26.851H390.2L384.9,386.955l.215,12.931v14.091Z" transform="translate(-332.92 -375.721)" fill="#013440"/>
      <path id="Path_3936" data-name="Path 3936" d="M513.736,413.978V376.172h7.153l5.37,27.624,5.048-27.624h7.2v37.806h-5.134V399.887l.215-12.931-5.091,26.851h-4.575l-5.306-26.851.215,12.931v14.091Z" transform="translate(-433.535 -375.721)" fill="#013440"/>
      <path id="Path_3937" data-name="Path 3937" d="M647.449,413.978V376.172h12.674v4.962h-6.917v11h6.573v4.855h-6.573v12.029h7.175v4.962Z" transform="translate(-534.149 -375.721)" fill="#013440"/>
      <path id="Path_3938" data-name="Path 3938" d="M727.534,413.978V376.172h9.516a7.042,7.042,0,0,1,4.425,1.16,5.6,5.6,0,0,1,1.923,3.394,27.453,27.453,0,0,1,.462,5.456,16.136,16.136,0,0,1-.677,5.231,3.988,3.988,0,0,1-2.76,2.545,3.113,3.113,0,0,1,1.654.806,4.475,4.475,0,0,1,1.074,1.847,14.3,14.3,0,0,1,.591,3.115q.182,1.9.183,4.651v1.2q0,.988.01,2.331t.033,2.674q.021,1.332.064,2.277a5.874,5.874,0,0,0,.107,1.117h-5.756a4.74,4.74,0,0,1-.1-1.106q-.032-1-.065-2.545t-.043-3.33q-.011-1.783-.011-3.512v-3.061a10.031,10.031,0,0,0-.247-2.567,1.857,1.857,0,0,0-.9-1.213,4.674,4.674,0,0,0-1.879-.408l-1.847-.107v17.85Zm5.778-22.318h2.3a2.388,2.388,0,0,0,1.6-.473,2.864,2.864,0,0,0,.752-1.74,24.612,24.612,0,0,0,.2-3.651v-.236a18.5,18.5,0,0,0-.193-3.072,2.134,2.134,0,0,0-.806-1.482,3.487,3.487,0,0,0-1.9-.408h-1.955Z" transform="translate(-594.41 -375.721)" fill="#013440"/>
      <path id="Path_3939" data-name="Path 3939" d="M824.194,413.978V376.172h5.757v32.909h7.281v4.9Z" transform="translate(-667.142 -375.721)" fill="#013440"/>
      <path id="Path_3940" data-name="Path 3940" d="M891.09,413.978l5.392-37.806h7.6l5.735,37.806h-5.37l-.9-6.745h-6.1l-.816,6.745Zm6.917-11.363h4.941l-2.535-18.989h-.086Z" transform="translate(-717.479 -375.721)" fill="#013440"/>
      <path id="Path_3941" data-name="Path 3941" d="M991.219,413.978V376.172h4.511l8.012,22.684-.408-10.311V376.172h5.177v37.806h-4.081L996.2,390.5l.322,9.924v13.554Z" transform="translate(-792.822 -375.721)" fill="#013440"/>
      <path id="Path_3942" data-name="Path 3942" d="M1094.648,413.978V376.172h8.485a8.259,8.259,0,0,1,4.618,1.149,6.473,6.473,0,0,1,2.524,3.319,15.488,15.488,0,0,1,.784,5.241l.021,17.056a20.128,20.128,0,0,1-.805,6.176,6.778,6.778,0,0,1-2.589,3.663,8.356,8.356,0,0,1-4.747,1.2Zm5.757-4.468h1.89a3.212,3.212,0,0,0,1.686-.408,2.483,2.483,0,0,0,1.01-1.45,10.169,10.169,0,0,0,.333-2.953l-.021-18.667a9.033,9.033,0,0,0-.709-4.167,2.61,2.61,0,0,0-2.492-1.267h-1.7Z" transform="translate(-870.649 -375.721)" fill="#013440"/>
    </g>
    <g id="Group_12768" data-name="Group 12768" transform="translate(691.549 115.977)">
      <path id="Path_3943" data-name="Path 3943" d="M492.861,572.392v-16.62h-2.03v-1.8h6.081v1.8h-1.894v16.62Z" transform="translate(-490.831 -553.742)" fill="#013440"/>
      <path id="Path_3944" data-name="Path 3944" d="M525.53,572.392v-18.42h3.862a3.661,3.661,0,0,1,2.167.518,2.469,2.469,0,0,1,.916,1.56,13.314,13.314,0,0,1,.215,2.621,8.587,8.587,0,0,1-.345,2.711,1.927,1.927,0,0,1-1.34,1.3,1.445,1.445,0,0,1,.832.429,2.422,2.422,0,0,1,.518,1.078,11.006,11.006,0,0,1,.267,1.962q.078,1.23.078,3.093v.513q0,.335.01.733t.026.785q.016.388.047.686a1.86,1.86,0,0,0,.084.434h-2.156a1.682,1.682,0,0,1-.073-.419q-.031-.324-.052-.858t-.032-1.271q-.01-.738-.01-1.654v-2a10.749,10.749,0,0,0-.089-1.6,1.057,1.057,0,0,0-.419-.764,2.228,2.228,0,0,0-1.052-.256L527.7,563.5v8.9Zm2.166-10.487h1.382a1.525,1.525,0,0,0,.916-.236,1.419,1.419,0,0,0,.434-.942,14.3,14.3,0,0,0,.115-2.119v-.125a10.652,10.652,0,0,0-.11-1.774,1.181,1.181,0,0,0-.424-.811,1.74,1.74,0,0,0-.953-.209H527.7Z" transform="translate(-516.941 -553.742)" fill="#013440"/>
      <path id="Path_3945" data-name="Path 3945" d="M564.287,572.392l2.795-18.42h2.606l3.045,18.42h-2.041l-.523-3.517H566.83l-.481,3.517Zm2.784-5.275H569.9l-1.455-9.733h-.032Z" transform="translate(-546.104 -553.742)" fill="#013440"/>
      <path id="Path_3946" data-name="Path 3946" d="M609.64,572.392v-18.42H613.1a3.694,3.694,0,0,1,2.25.6,3.168,3.168,0,0,1,1.13,1.722,9.713,9.713,0,0,1,.324,2.679l.011,8.09a10.316,10.316,0,0,1-.372,3.04,3.113,3.113,0,0,1-1.2,1.732,3.93,3.93,0,0,1-2.213.555Zm2.156-1.748h1.11a1.729,1.729,0,0,0,.973-.256,1.61,1.61,0,0,0,.581-.958,8.079,8.079,0,0,0,.194-2.03v-8.478a5.524,5.524,0,0,0-.408-2.486,1.408,1.408,0,0,0-1.339-.748H611.8Z" transform="translate(-580.23 -553.742)" fill="#013440"/>
      <path id="Path_3947" data-name="Path 3947" d="M653.006,572.392v-18.42h2.166v18.42Z" transform="translate(-612.862 -553.742)" fill="#013440"/>
      <path id="Path_3948" data-name="Path 3948" d="M676.965,572.392v-18.42H678.6l4.27,12.538-.22-5.327v-7.211h1.915v18.42h-1.591l-4.134-12.643.126,4.647v8Z" transform="translate(-630.89 -553.742)" fill="#013440"/>
      <path id="Path_3949" data-name="Path 3949" d="M725.341,571.966a2.762,2.762,0,0,1-2.459-1.319,8.269,8.269,0,0,1-.858-4.343V558.58a12.835,12.835,0,0,1,.173-2.2,5.15,5.15,0,0,1,.591-1.711,2.85,2.85,0,0,1,1.146-1.11,3.884,3.884,0,0,1,1.837-.387,3.69,3.69,0,0,1,1.837.392,2.554,2.554,0,0,1,1.041,1.115,5.254,5.254,0,0,1,.471,1.727,19.661,19.661,0,0,1,.115,2.219v1.423h-2.093v-2.4a5.5,5.5,0,0,0-.267-1.983,1.07,1.07,0,0,0-1.1-.643,1.243,1.243,0,0,0-1.235.764,7.291,7.291,0,0,0-.345,2.7v7.745a11.142,11.142,0,0,0,.288,3.024,1.184,1.184,0,0,0,1.23.91,1.21,1.21,0,0,0,1.22-.916,10.317,10.317,0,0,0,.319-3.061v-2.4h-1.5v-1.675h3.485v9.671h-1.141l-.293-1.423a2.374,2.374,0,0,1-.926,1.188A2.742,2.742,0,0,1,725.341,571.966Z" transform="translate(-664.794 -553.137)" fill="#013440"/>
      <path id="Path_3950" data-name="Path 3950" d="M792.293,572.008a3.259,3.259,0,0,1-2.135-.654,3.637,3.637,0,0,1-1.141-1.921,11.837,11.837,0,0,1-.345-3.077v-7.671a14.533,14.533,0,0,1,.157-2.224,5.336,5.336,0,0,1,.56-1.748,2.837,2.837,0,0,1,1.125-1.141,3.776,3.776,0,0,1,1.852-.4,3.575,3.575,0,0,1,1.759.382,2.652,2.652,0,0,1,1.057,1.089,5.108,5.108,0,0,1,.518,1.674,14.865,14.865,0,0,1,.141,2.14V560.5h-2.124v-2.051a9.969,9.969,0,0,0-.246-2.569,1.059,1.059,0,0,0-1.1-.853,1.193,1.193,0,0,0-1.219.874,8.014,8.014,0,0,0-.309,2.538v7.975a16.421,16.421,0,0,0,.115,2.171,2.379,2.379,0,0,0,.434,1.209,1.133,1.133,0,0,0,.916.377,1.111,1.111,0,0,0,1.141-.879,10.813,10.813,0,0,0,.272-2.889v-2.041h2.145v2.02a12.8,12.8,0,0,1-.319,3.1,3.474,3.474,0,0,1-1.094,1.894A3.3,3.3,0,0,1,792.293,572.008Z" transform="translate(-714.945 -553.137)" fill="#013440"/>
      <path id="Path_3951" data-name="Path 3951" d="M834.179,571.9a3.53,3.53,0,0,1-2.182-.607,3.316,3.316,0,0,1-1.141-1.831,11.659,11.659,0,0,1-.34-3.066v-8.122a10.768,10.768,0,0,1,.314-2.763,3.38,3.38,0,0,1,1.12-1.821,3.552,3.552,0,0,1,2.282-.649,3.856,3.856,0,0,1,1.811.372,2.615,2.615,0,0,1,1.083,1.057,4.88,4.88,0,0,1,.529,1.648,14.43,14.43,0,0,1,.146,2.156V566.4a12.014,12.014,0,0,1-.33,3.066,3.3,3.3,0,0,1-1.12,1.831A3.485,3.485,0,0,1,834.179,571.9Zm0-1.863a1.177,1.177,0,0,0,.91-.34,2.123,2.123,0,0,0,.429-1.136,15.755,15.755,0,0,0,.115-2.145v-8.268a8.448,8.448,0,0,0-.261-2.449,1.087,1.087,0,0,0-1.141-.8,1.208,1.208,0,0,0-1.23.79,6.954,6.954,0,0,0-.319,2.444v8.279a15.647,15.647,0,0,0,.115,2.151,2.053,2.053,0,0,0,.44,1.13A1.239,1.239,0,0,0,834.179,570.038Z" transform="translate(-746.431 -553.041)" fill="#013440"/>
    </g>
  </g>
</svg>
