<svg version="1.2" xmlns="http://www.w3.org/2000/svg" viewBox="0 0 83 80" width="83" height="80">
	<title>logo-svg</title>
	<style>
		.s0 { fill: #d95c14 } 
		.s1 { fill: #013440 } 
	</style>
	<g id="Group_12769">
		<g id="Group_12766">
			<path id="Path_3924" class="s0" d="m20.8 47l-5.3 2.4v-18.9l5.3-2.8z"/>
			<g id="Group_12765">
				<path id="Path_3925" class="s0" d="m31.7 39.2l-5.3 2.4v-18.9l5.3-2.8z"/>
				<path id="Path_3926" class="s0" d="m46 16.8v19.3l-5.3-2.3-5.3 2.3v-18.8l5.3-2.9z"/>
				<path id="Path_3927" class="s0" d="m55.6 41.6l-5.3-2.9v-18.8l5.3 2.4z"/>
				<path id="Path_3928" class="s0" d="m66 48l-5.3-2.9v-18.9l5.3 2.4z"/>
				<path id="Path_3929" class="s0" d="m66.8 60.8l-25.3-14.6-25.2 14.5v-6.4l25.2-14.6v0.1l25.2 14.5z"/>
				<path id="Path_3930" class="s0" d="m40.8 59.3h-5.7v-2.6l5.7-3.2z"/>
				<path id="Path_3931" class="s0" d="m47.6 59.3h-5.7v-5.8l5.7 3.4z"/>
				<path id="Rectangle_633" class="s0" d="m35.2 60.2h5.7v5.7h-5.7z"/>
				<path id="Rectangle_634" class="s0" d="m41.9 60.2h5.7v5.7h-5.7z"/>
				<path id="Path_3932" fill-rule="evenodd" class="s0" d="m81 27.2q0.9 1.2 1.3 2.5 0.4 1.4 0.4 2.8 0 1.5-0.4 2.8l-12.4 38q-0.4 1.4-1.2 2.6-0.9 1.1-2 2-1.2 0.8-2.5 1.2-1.4 0.5-2.8 0.5h-40q-1.5 0-2.8-0.5-1.4-0.4-2.5-1.2-1.2-0.9-2-2-0.9-1.2-1.3-2.6l-12.4-38q-0.4-1.3-0.4-2.8 0-1.4 0.4-2.8 0.5-1.3 1.3-2.5 0.9-1.1 2-2l32.4-23.5q1.1-0.8 2.5-1.3 1.3-0.4 2.8-0.4 1.4 0 2.8 0.4 1.3 0.5 2.5 1.3l32.3 23.5q1.2 0.9 2 2zm-4.8 7.5q0-1.5-0.5-2.8-0.4-1.4-1.2-2.5-0.9-1.2-2-2l-25.8-18.8q-1.2-0.8-2.5-1.3-1.4-0.4-2.8-0.4-1.5 0-2.8 0.4-1.4 0.5-2.5 1.3l-25.8 18.8q-1.2 0.8-2 2-0.9 1.1-1.3 2.5-0.4 1.3-0.4 2.8 0 1.4 0.4 2.7l9.9 30.4q0.4 1.3 1.2 2.5 0.9 1.1 2 2 1.2 0.8 2.5 1.2 1.4 0.5 2.8 0.5h31.9q1.4 0 2.8-0.5 1.4-0.4 2.5-1.2 1.2-0.9 2-2 0.8-1.2 1.3-2.5l9.8-30.4q0.5-1.3 0.5-2.7z"/>
			</g>
		</g>
		<g id="Group_12767">
			<path id="Path_3933" class="s1" d="m106 49.8q-0.5 0-1 0-0.6-0.1-1-0.2-0.5-0.1-1-0.2-0.5-0.1-1-0.3-0.4-0.2-0.7-0.4-0.4-0.3-0.7-0.6-0.3-0.2-0.6-0.5-0.2-0.4-0.5-0.7-0.2-0.4-0.4-0.8-0.2-0.5-0.4-0.9-0.2-0.4-0.3-0.9-0.1-0.4-0.2-0.9-0.1-0.6-0.1-1.2-0.1-0.5-0.2-1.1 0-0.6 0-1.2-0.1-0.6-0.1-1.2v-3.3h5.5v3.8q0 0.5 0 1.1 0 0.5 0.1 1.1 0 0.5 0.1 1.1 0.2 0.5 0.3 1 0.1 0.4 0.3 0.6 0.2 0.3 0.5 0.5 0.3 0.1 0.6 0.2 0.3 0.1 0.7 0.1 0.2 0 0.4 0 0.2-0.1 0.4-0.1 0.2-0.1 0.4-0.2 0.1-0.1 0.3-0.2 0.2-0.2 0.3-0.4 0.1-0.1 0.2-0.3 0.1-0.2 0.1-0.4 0.1-0.2 0.1-0.5 0.1-0.3 0.1-0.7 0-0.3 0.1-0.6 0-0.4 0-0.7 0-0.4 0-0.7 0-0.5 0-1-0.1-0.5-0.2-1-0.1-0.5-0.3-1-0.2-0.5-0.4-0.9-0.3-0.5-0.6-1-0.3-0.5-0.6-1-0.3-0.4-0.7-0.8-0.4-0.5-0.8-0.9l-2.8-2.9q-0.3-0.3-0.5-0.6-0.3-0.3-0.6-0.6-0.2-0.3-0.5-0.6-0.2-0.4-0.5-0.7-0.2-0.4-0.4-0.7-0.2-0.4-0.4-0.8-0.2-0.3-0.4-0.7-0.1-0.4-0.3-0.8-0.1-0.5-0.2-0.9-0.1-0.5-0.2-1 0-0.4-0.1-0.9 0-0.5 0-1 0-0.6 0-1.2 0.1-0.7 0.2-1.3 0-0.6 0.2-1.3 0.1-0.6 0.3-1.2 0.2-0.5 0.4-0.9 0.3-0.5 0.6-0.9 0.3-0.4 0.7-0.7 0.4-0.4 0.8-0.6 0.5-0.3 1.1-0.5 0.6-0.3 1.2-0.4 0.6-0.1 1.2-0.2 0.6 0 1.3 0 0.4 0 0.9 0 0.5 0.1 1 0.1 0.5 0.1 0.9 0.3 0.5 0.1 0.9 0.3 0.4 0.2 0.7 0.4 0.3 0.2 0.6 0.5 0.3 0.2 0.6 0.5 0.2 0.3 0.4 0.6 0.2 0.4 0.4 0.8 0.2 0.4 0.4 0.8 0.1 0.4 0.2 0.9 0.1 0.4 0.2 0.8 0.1 0.6 0.1 1.1 0.1 0.5 0.2 1.1 0 0.5 0 1.1 0 0.6 0 1.1v2.3h-5.3v-2.7q0-0.3 0-0.7 0-0.3 0-0.7 0-0.4-0.1-0.7 0-0.4-0.1-0.7 0-0.3 0-0.5-0.1-0.2-0.2-0.4-0.1-0.2-0.2-0.4-0.1-0.2-0.2-0.4-0.2-0.2-0.3-0.3-0.2-0.1-0.4-0.2-0.2 0-0.4-0.1-0.2 0-0.4 0-0.2 0-0.4 0-0.2 0-0.3 0.1-0.2 0-0.4 0.1-0.2 0.1-0.3 0.2-0.2 0.1-0.3 0.3-0.1 0.1-0.2 0.2-0.1 0.2-0.2 0.4-0.1 0.1-0.1 0.3-0.1 0.3-0.2 0.6 0 0.2 0 0.5-0.1 0.3-0.1 0.5 0 0.3 0 0.6 0 0.2 0 0.5 0 0.2 0.1 0.5 0 0.3 0.1 0.5 0 0.3 0.1 0.5 0.1 0.2 0.2 0.4 0.1 0.3 0.2 0.5 0.1 0.2 0.3 0.4 0.1 0.2 0.2 0.4 0.7 0.8 1.6 1.7l3.1 3.4q0.5 0.6 1 1.2 0.5 0.6 0.9 1.2 0.5 0.6 0.9 1.3 0.3 0.6 0.7 1.3 0.3 0.7 0.5 1.4 0.3 0.7 0.4 1.4 0.2 0.8 0.3 1.5 0 0.8 0 1.5 0 0.7 0 1.5 0 0.7-0.1 1.4-0.1 0.7-0.3 1.4-0.1 0.7-0.3 1.4-0.2 0.5-0.4 1-0.2 0.5-0.5 1-0.3 0.4-0.7 0.8-0.4 0.4-0.9 0.7-0.5 0.3-1 0.6-0.6 0.2-1.2 0.4-0.6 0.1-1.2 0.2-0.6 0-1.2 0z"/>
			<path id="Path_3934" class="s1" d="m128.6 49.8q-0.6 0-1.3 0-0.6-0.1-1.2-0.2-0.6-0.2-1.2-0.4-0.6-0.2-1.1-0.5-0.5-0.3-0.9-0.7-0.4-0.3-0.7-0.8-0.4-0.4-0.7-0.9-0.2-0.4-0.4-1-0.2-0.6-0.4-1.3-0.2-0.8-0.3-1.5-0.1-0.7-0.2-1.4 0-0.7 0-1.4v-28.1h5.8v27.9q0 0.4 0 0.7 0 0.4 0 0.7 0 0.4 0.1 0.7 0 0.4 0 0.7 0 0.3 0.1 0.5 0 0.3 0.1 0.5 0.1 0.3 0.2 0.5 0.2 0.2 0.3 0.4 0.2 0.2 0.4 0.3 0.2 0.2 0.4 0.2 0.2 0.1 0.5 0.2 0.2 0 0.5 0 0.2 0 0.4 0 0.3-0.1 0.5-0.2 0.3 0 0.5-0.2 0.2-0.1 0.3-0.3 0.2-0.2 0.3-0.4 0.1-0.2 0.2-0.5 0.1-0.2 0.1-0.4 0.1-0.3 0.1-0.5 0-0.4 0.1-0.7 0-0.4 0-0.7 0-0.4 0-0.8 0-0.3 0-0.7v-27.9h5.8v28.1q0 0.7 0 1.4-0.1 0.7-0.2 1.4-0.1 0.7-0.2 1.4-0.2 0.8-0.4 1.4-0.2 0.6-0.5 1-0.3 0.5-0.6 0.9-0.3 0.5-0.8 0.8-0.4 0.4-0.8 0.7-0.6 0.3-1.2 0.5-0.5 0.2-1.1 0.4-0.7 0.1-1.3 0.2-0.6 0-1.2 0z"/>
			<path id="Path_3935" class="s1" d="m144.9 49.4v-37.8h7.2l5.3 27.6 5.1-27.6h7.2v37.8h-5.2v-14.1l0.3-13-5.1 26.9h-4.6l-5.3-26.9 0.2 13v14.1z"/>
			<path id="Path_3936" class="s1" d="m178 49.4v-37.8h7.2l5.3 27.6 5.1-27.6h7.2v37.8h-5.2v-14.1l0.3-13-5.1 26.9h-4.6l-5.3-26.9 0.2 13v14.1z"/>
			<path id="Path_3937" class="s1" d="m211.1 49.4v-37.8h12.7v4.9h-6.9v11h6.5v4.9h-6.5v12h7.1v5z"/>
			<path id="Path_3938" fill-rule="evenodd" class="s1" d="m230.9 49.4v-37.8h9.5q0.6-0.1 1.2 0 0.6 0 1.2 0.2 0.5 0.1 1.1 0.4 0.5 0.2 1 0.5 0.4 0.3 0.7 0.7 0.3 0.4 0.5 0.8 0.3 0.5 0.4 0.9 0.2 0.5 0.3 1 0.1 0.7 0.2 1.4 0.1 0.6 0.2 1.3 0 0.7 0 1.4 0.1 0.7 0.1 1.4 0 0.6-0.1 1.3 0 0.7-0.1 1.3-0.1 0.7-0.2 1.3-0.1 0.7-0.3 1.3-0.2 0.5-0.5 0.9-0.2 0.4-0.6 0.7-0.3 0.3-0.8 0.6-0.4 0.2-0.9 0.3 0.2 0.1 0.5 0.1 0.2 0.1 0.4 0.2 0.2 0.1 0.4 0.3 0.2 0.1 0.4 0.2 0.2 0.2 0.3 0.5 0.2 0.2 0.3 0.4 0.2 0.2 0.3 0.5 0.1 0.2 0.1 0.5 0.2 0.4 0.3 0.8 0.1 0.3 0.1 0.7 0.1 0.4 0.2 0.8 0 0.4 0 0.8 0.2 1.9 0.2 4.7v1.2q0 1 0 2.3 0 1.3 0.1 2.7 0 1.3 0 2.2 0 0.2 0 0.3 0 0.2 0.1 0.3 0 0.1 0 0.3 0 0.1 0 0.3h-5.7q-0.1-0.2-0.1-0.3 0-0.2 0-0.3 0-0.1 0-0.3 0-0.1 0-0.2-0.1-1-0.1-2.6 0-1.5 0-3.3 0-1.8 0-3.5v-3.1q0-0.3 0-0.6-0.1-0.4-0.1-0.7 0-0.3-0.1-0.6 0-0.3-0.1-0.7 0-0.2-0.1-0.3-0.1-0.2-0.2-0.4-0.1-0.1-0.3-0.2-0.1-0.2-0.3-0.3-0.2-0.1-0.4-0.1-0.3-0.1-0.5-0.2-0.2 0-0.5-0.1-0.2 0-0.5 0l-1.8-0.1v17.9zm5.8-22.4h2.3q0.2 0.1 0.4 0 0.2 0 0.4 0 0.2-0.1 0.4-0.2 0.2-0.1 0.4-0.2 0.1-0.2 0.3-0.4 0.1-0.2 0.2-0.4 0.1-0.3 0.1-0.5 0.1-0.2 0.1-0.5 0.1-0.4 0.1-0.9 0.1-0.4 0.1-0.9 0-0.4 0-0.9 0-0.5 0-0.9v-0.3q0-0.3 0-0.7 0-0.4 0-0.8 0-0.4-0.1-0.8 0-0.3-0.1-0.7 0-0.2-0.1-0.5 0-0.2-0.1-0.4-0.1-0.1-0.3-0.3-0.1-0.2-0.3-0.3-0.2-0.1-0.4-0.2-0.3-0.1-0.5-0.1-0.2-0.1-0.5-0.1-0.2 0-0.5 0h-1.9z"/>
			<path id="Path_3939" class="s1" d="m254.9 49.4v-37.8h5.7v32.9h7.3v4.9z"/>
			<path id="Path_3940" fill-rule="evenodd" class="s1" d="m271.4 49.4l5.4-37.8h7.6l5.7 37.8h-5.3l-0.9-6.8h-6.1l-0.8 6.8zm6.9-11.4h4.9l-2.5-19h-0.1z"/>
			<path id="Path_3941" class="s1" d="m296.2 49.4v-37.8h4.5l8 22.6-0.4-10.3v-12.3h5.2v37.8h-4.1l-8.2-23.5 0.3 9.9v13.6z"/>
			<path id="Path_3942" fill-rule="evenodd" class="s1" d="m321.8 49.4v-37.8h8.5q0.6-0.1 1.2 0 0.6 0 1.2 0.2 0.6 0.1 1.1 0.4 0.6 0.2 1.1 0.5 0.4 0.3 0.8 0.7 0.4 0.3 0.7 0.8 0.4 0.4 0.6 0.9 0.3 0.4 0.4 0.9 0.2 0.7 0.4 1.3 0.1 0.7 0.2 1.3 0.1 0.7 0.2 1.3 0 0.7 0 1.4v17q0.1 0.8 0 1.6 0 0.8-0.1 1.5-0.1 0.8-0.3 1.6-0.2 0.7-0.4 1.5-0.1 0.5-0.4 1.1-0.2 0.5-0.6 0.9-0.3 0.5-0.7 0.9-0.4 0.4-0.9 0.8-0.5 0.3-1.1 0.5-0.5 0.3-1.1 0.4-0.6 0.2-1.3 0.2-0.6 0.1-1.2 0.1zm5.8-4.5h1.8q0.3 0 0.5 0 0.2 0 0.4-0.1 0.2 0 0.4-0.1 0.2-0.1 0.4-0.2 0.2-0.1 0.4-0.3 0.1-0.2 0.3-0.3 0.1-0.2 0.2-0.4 0.1-0.2 0.1-0.5 0.1-0.3 0.2-0.7 0.1-0.4 0.1-0.7 0.1-0.4 0.1-0.8 0-0.3 0-0.7l-0.1-18.7q0.1-0.5 0.1-1.1-0.1-0.5-0.2-1 0-0.5-0.2-1-0.1-0.6-0.4-1.1-0.1-0.3-0.4-0.5-0.3-0.3-0.6-0.4-0.4-0.2-0.7-0.3-0.4-0.1-0.8 0h-1.7z"/>
		</g>
		<g id="Group_12768">
			<path id="Path_3943" class="s1" d="m173.9 74.9v-16.6h-2v-1.8h6.1v1.8h-1.9v16.6z"/>
			<path id="Path_3944" fill-rule="evenodd" class="s1" d="m180.5 74.9v-18.4h3.8q0.3 0 0.6 0 0.3 0 0.5 0.1 0.3 0.1 0.6 0.2 0.2 0.1 0.5 0.2 0.2 0.2 0.3 0.4 0.2 0.1 0.3 0.3 0.1 0.2 0.2 0.4 0.1 0.3 0.1 0.5 0.1 0.3 0.1 0.6 0 0.4 0.1 0.7 0 0.3 0 0.7 0 0.3 0 0.6 0 0.4 0 0.7 0 0.3 0 0.7-0.1 0.3-0.2 0.7 0 0.3-0.1 0.6-0.1 0.3-0.2 0.5-0.2 0.2-0.3 0.4-0.2 0.1-0.4 0.2-0.2 0.2-0.5 0.2 0.2 0 0.3 0.1 0.1 0 0.2 0.1 0.1 0 0.2 0.1 0.1 0.1 0.2 0.2 0.1 0.1 0.1 0.2 0.1 0.1 0.2 0.3 0.1 0.1 0.1 0.2 0.1 0.2 0.1 0.3 0 0.3 0.1 0.5 0 0.3 0.1 0.5 0 0.3 0 0.5 0 0.2 0.1 0.5 0 1.2 0 3.1v0.5q0 0.3 0 0.7 0 0.4 0.1 0.8 0 0.4 0 0.7 0 0.1 0 0.1 0 0.1 0 0.1 0.1 0.1 0.1 0.1 0 0.1 0 0.1h-2.2q0 0 0-0.1 0 0 0-0.1 0 0 0-0.1 0 0 0-0.1-0.1-0.3-0.1-0.8 0-0.6 0-1.3 0-0.7 0-1.7v-2q0-0.2 0-0.4 0-0.2 0-0.4-0.1-0.2-0.1-0.4 0-0.2 0-0.4 0-0.1-0.1-0.2 0-0.1 0-0.2-0.1-0.1-0.2-0.2 0-0.1-0.1-0.1-0.2-0.1-0.3-0.1-0.1-0.1-0.2-0.1-0.2-0.1-0.3-0.1-0.2 0-0.3 0l-1.3-0.1v8.9zm2.2-10.4h1.4q0.1 0 0.2 0 0.1-0.1 0.3-0.1 0.1 0 0.2-0.1 0.1 0 0.2-0.1 0.1-0.1 0.2-0.2 0-0.1 0.1-0.2 0.1-0.1 0.1-0.3 0-0.1 0-0.2 0.1-0.3 0.1-0.5 0-0.3 0-0.6 0-0.2 0-0.5 0-0.3 0-0.5v-0.2q0-0.2 0-0.4 0-0.2 0-0.5 0-0.2 0-0.4 0-0.2-0.1-0.4 0-0.2 0-0.3 0-0.1-0.1-0.2-0.1-0.1-0.1-0.2-0.1-0.1-0.2-0.1-0.1-0.1-0.2-0.2-0.1 0-0.3 0-0.1 0-0.2-0.1-0.1 0-0.2 0h-1.4z"/>
			<path id="Path_3945" fill-rule="evenodd" class="s1" d="m190.1 74.9l2.7-18.4h2.7l3 18.4h-2l-0.6-3.5h-3.3l-0.5 3.5zm2.8-5.2h2.8l-1.4-9.8h-0.1z"/>
			<path id="Path_3946" fill-rule="evenodd" class="s1" d="m201.3 74.9v-18.4h3.4q0.3 0 0.6 0 0.3 0.1 0.6 0.1 0.3 0.1 0.6 0.2 0.2 0.2 0.5 0.3 0.2 0.2 0.4 0.4 0.2 0.2 0.3 0.4 0.1 0.2 0.2 0.4 0.2 0.3 0.2 0.5 0.1 0.4 0.2 0.7 0 0.3 0.1 0.7 0 0.3 0 0.6 0 0.4 0 0.7l0.1 8.1q0 0.4-0.1 0.8 0 0.4 0 0.7-0.1 0.4-0.1 0.8-0.1 0.4-0.2 0.7-0.1 0.3-0.2 0.6-0.1 0.2-0.3 0.4-0.1 0.2-0.3 0.4-0.2 0.2-0.4 0.4-0.3 0.1-0.5 0.2-0.3 0.2-0.6 0.2-0.3 0.1-0.6 0.1-0.2 0.1-0.5 0zm2.1-1.7h1.1q0.2 0 0.3 0 0.1 0 0.2-0.1 0.2 0 0.3-0.1 0.1 0 0.2-0.1 0.1-0.1 0.2-0.2 0.1-0.1 0.2-0.2 0.1-0.1 0.1-0.3 0.1-0.1 0.1-0.2 0-0.3 0.1-0.5 0-0.3 0.1-0.5 0-0.3 0-0.5 0-0.3 0-0.6v-8.4q0-0.4 0-0.7 0-0.3-0.1-0.6 0-0.3-0.1-0.6-0.1-0.3-0.2-0.6-0.1-0.2-0.3-0.3-0.1-0.2-0.3-0.3-0.2-0.1-0.4-0.1-0.2-0.1-0.4-0.1h-1.1z"/>
			<path id="Path_3947" class="s1" d="m212 74.9v-18.4h2.2v18.4z"/>
			<path id="Path_3948" class="s1" d="m217.9 74.9v-18.4h1.7l4.2 12.6-0.2-5.4v-7.2h1.9v18.4h-1.5l-4.2-12.6 0.1 4.6v8z"/>
			<path id="Path_3949" class="s1" d="m232.4 75.1q-0.4 0-0.7-0.1-0.4 0-0.7-0.2-0.3-0.2-0.6-0.4-0.3-0.3-0.4-0.6-0.3-0.5-0.5-1-0.2-0.6-0.3-1.1-0.1-0.6-0.1-1.1 0-0.6 0-1.1v-7.8q0-0.2 0-0.5 0-0.3 0-0.6 0.1-0.2 0.1-0.5 0-0.3 0.1-0.6 0-0.2 0.1-0.4 0-0.2 0.1-0.5 0.1-0.2 0.2-0.4 0.1-0.2 0.2-0.4 0.1-0.2 0.2-0.3 0.1-0.2 0.3-0.3 0.1-0.2 0.3-0.3 0.1-0.1 0.3-0.2 0.2-0.1 0.4-0.2 0.3 0 0.5-0.1 0.2 0 0.5-0.1 0.2 0 0.4 0 0.3 0 0.5 0 0.3 0.1 0.5 0.1 0.2 0 0.4 0.1 0.3 0.1 0.5 0.2 0.2 0.1 0.3 0.2 0.2 0.2 0.3 0.3 0.1 0.1 0.2 0.3 0.1 0.2 0.2 0.3 0.1 0.2 0.2 0.4 0.1 0.3 0.1 0.5 0.1 0.2 0.1 0.4 0.1 0.2 0.1 0.5 0 0.2 0 0.5 0.1 0.3 0.1 0.6 0 0.2 0 0.5 0 0.3 0 0.6v1.4h-2.1v-2.4q0-0.3 0-0.5 0-0.3 0-0.5-0.1-0.3-0.1-0.5-0.1-0.2-0.1-0.5-0.1-0.1-0.2-0.3-0.1-0.1-0.3-0.2-0.1-0.1-0.3-0.1-0.2 0-0.3 0-0.2 0-0.4 0-0.2 0.1-0.4 0.2-0.2 0.1-0.3 0.2-0.1 0.2-0.2 0.3-0.1 0.4-0.2 0.7 0 0.3-0.1 0.7 0 0.3 0 0.7-0.1 0.3 0 0.6v7.8q0 0.4 0 0.7 0 0.4 0 0.8 0 0.4 0.1 0.8 0.1 0.3 0.2 0.7 0 0.2 0.1 0.4 0.1 0.2 0.3 0.3 0.2 0.1 0.4 0.2 0.2 0 0.4 0 0.2 0 0.4 0 0.2-0.1 0.4-0.2 0.1-0.2 0.2-0.3 0.2-0.2 0.2-0.4 0.1-0.4 0.2-0.8 0-0.3 0.1-0.7 0-0.4 0-0.8 0-0.4 0-0.8v-2.4h-1.5v-1.6h3.5v9.6h-1.1l-0.3-1.4q-0.1 0.2-0.2 0.4-0.1 0.1-0.2 0.3-0.1 0.1-0.2 0.3-0.2 0.1-0.3 0.2-0.2 0.1-0.4 0.2-0.2 0.1-0.4 0.1-0.2 0.1-0.4 0.1-0.2 0-0.4 0z"/>
			<path id="Path_3950" class="s1" d="m249.2 75.2q-0.3 0-0.6-0.1-0.2 0-0.5-0.1-0.3-0.1-0.5-0.2-0.3-0.1-0.5-0.3-0.2-0.2-0.4-0.4-0.2-0.2-0.3-0.5-0.2-0.2-0.3-0.5-0.1-0.2-0.2-0.5-0.1-0.4-0.1-0.8-0.1-0.4-0.1-0.7-0.1-0.4-0.1-0.8 0-0.4 0-0.8v-7.7q0-0.2 0-0.5 0-0.3 0-0.6 0.1-0.3 0.1-0.5 0-0.3 0.1-0.6 0-0.2 0-0.4 0.1-0.3 0.2-0.5 0-0.2 0.1-0.4 0.1-0.2 0.2-0.4 0.1-0.2 0.2-0.4 0.2-0.1 0.3-0.3 0.1-0.1 0.3-0.3 0.2-0.1 0.3-0.2 0.3-0.1 0.5-0.2 0.2 0 0.4-0.1 0.3 0 0.5-0.1 0.3 0 0.5 0 0.2 0 0.4 0 0.3 0.1 0.5 0.1 0.2 0 0.4 0.1 0.2 0.1 0.4 0.2 0.2 0.1 0.4 0.2 0.1 0.1 0.3 0.3 0.1 0.1 0.2 0.3 0.1 0.1 0.2 0.3 0.1 0.2 0.2 0.4 0.1 0.2 0.1 0.4 0.1 0.2 0.1 0.4 0.1 0.2 0.1 0.5 0.1 0.2 0.1 0.5 0 0.3 0 0.5 0.1 0.3 0.1 0.6 0 0.2 0 0.5v2.1h-2.2v-2.1q0.1-0.3 0-0.6 0-0.4 0-0.7 0-0.3-0.1-0.6 0-0.4-0.1-0.7 0-0.2-0.1-0.3-0.1-0.2-0.3-0.3-0.1-0.1-0.3-0.2-0.2 0-0.4 0-0.2 0-0.4 0-0.2 0.1-0.4 0.2-0.1 0.1-0.3 0.3-0.1 0.2-0.1 0.4-0.1 0.3-0.2 0.6 0 0.3-0.1 0.6 0 0.3 0 0.6 0 0.4 0 0.7v8q0 0.2 0 0.5 0 0.3 0 0.6 0 0.2 0 0.5 0 0.3 0.1 0.5 0 0.2 0 0.4 0.1 0.1 0.1 0.3 0.1 0.1 0.1 0.3 0.1 0.1 0.2 0.2 0.1 0.1 0.2 0.2 0.1 0.1 0.2 0.1 0.1 0.1 0.3 0.1 0.1 0 0.2 0 0.2 0 0.4 0 0.2-0.1 0.4-0.2 0.1-0.1 0.2-0.3 0.1-0.2 0.2-0.4 0.1-0.3 0.1-0.7 0.1-0.3 0.1-0.7 0-0.4 0.1-0.7 0-0.4-0.1-0.7v-2.1h2.2v2q0 0.4 0 0.8 0 0.4-0.1 0.8 0 0.4-0.1 0.8 0 0.4-0.1 0.7-0.1 0.3-0.2 0.6-0.1 0.2-0.2 0.5-0.2 0.2-0.3 0.4-0.2 0.2-0.4 0.4-0.3 0.2-0.5 0.3-0.3 0.2-0.5 0.2-0.3 0.1-0.6 0.1-0.3 0.1-0.6 0.1z"/>
			<path id="Path_3951" fill-rule="evenodd" class="s1" d="m259.6 75.1q-0.3 0.1-0.6 0-0.2 0-0.5-0.1-0.3-0.1-0.6-0.2-0.2-0.1-0.5-0.3-0.2-0.1-0.4-0.3-0.1-0.2-0.3-0.5-0.1-0.2-0.2-0.5-0.1-0.2-0.2-0.5-0.1-0.4-0.2-0.7 0-0.4-0.1-0.8 0-0.4 0-0.8-0.1-0.4 0-0.8v-8.1q-0.1-0.3 0-0.7 0-0.3 0-0.7 0.1-0.3 0.1-0.7 0.1-0.3 0.2-0.6 0-0.3 0.1-0.6 0.1-0.2 0.3-0.4 0.1-0.3 0.3-0.5 0.2-0.2 0.4-0.4 0.2-0.1 0.5-0.3 0.3-0.1 0.6-0.2 0.3-0.1 0.6-0.1 0.3 0 0.6 0 0.2 0 0.4 0 0.3 0 0.5 0.1 0.2 0 0.4 0.1 0.3 0.1 0.5 0.2 0.2 0 0.3 0.2 0.2 0.1 0.3 0.2 0.1 0.1 0.3 0.3 0.1 0.1 0.2 0.3 0.1 0.2 0.2 0.4 0 0.2 0.1 0.4 0.1 0.2 0.1 0.4 0.1 0.2 0.1 0.5 0 0.2 0.1 0.5 0 0.3 0 0.5 0 0.3 0 0.6 0 0.3 0 0.5v8.1q0 0.4 0 0.8 0 0.4 0 0.8-0.1 0.4-0.1 0.8-0.1 0.3-0.2 0.7-0.1 0.3-0.2 0.5-0.1 0.3-0.2 0.5-0.1 0.3-0.3 0.5-0.2 0.2-0.4 0.3-0.2 0.2-0.5 0.3-0.3 0.1-0.5 0.2-0.3 0.1-0.6 0.1-0.3 0.1-0.6 0zm0-1.8q0.1 0 0.3 0 0.1 0 0.2-0.1 0.1 0 0.2-0.1 0.1-0.1 0.2-0.2 0.1-0.1 0.2-0.2 0.1-0.1 0.1-0.3 0.1-0.1 0.1-0.3 0-0.1 0.1-0.3 0-0.3 0-0.5 0-0.3 0.1-0.6 0-0.2 0-0.5 0-0.3 0-0.5v-8.3q0-0.3 0-0.6 0-0.3-0.1-0.6 0-0.3-0.1-0.7 0-0.3-0.1-0.6 0-0.1-0.1-0.3-0.2-0.2-0.3-0.3-0.2-0.1-0.4-0.1-0.1-0.1-0.3-0.1-0.2 0-0.4 0.1-0.2 0-0.4 0.1-0.1 0.1-0.3 0.3-0.1 0.2-0.2 0.3-0.1 0.3-0.1 0.6-0.1 0.3-0.1 0.6-0.1 0.4-0.1 0.7 0 0.3 0 0.6v8.3q0 0.2 0 0.5 0 0.3 0 0.5 0.1 0.3 0.1 0.6 0 0.2 0 0.5 0 0.2 0.1 0.3 0 0.2 0.1 0.3 0 0.2 0.1 0.3 0.1 0.1 0.2 0.2 0.1 0.1 0.2 0.2 0.1 0.1 0.2 0.1 0.1 0.1 0.3 0.1 0.1 0 0.2 0z"/>
		</g>
	</g>
</svg>