<svg xmlns="http://www.w3.org/2000/svg" width="49.999" height="49.849" viewBox="0 0 49.999 49.849">
  <path id="Path_22" data-name="Path 22" d="M45.548,29.517a7.872,7.872,0,0,1-1.676-.3,24.665,24.665,0,0,1-3.277-.976,5,5,0,0,0-6.2,2.5l-.55,1.151a32.945,32.945,0,0,1-6.679-5,32.945,32.945,0,0,1-5-6.679l1.151-.525a5,5,0,0,0,2.5-6.2,26.191,26.191,0,0,1-.976-3.3c-.125-.55-.225-1.126-.3-1.676a7.5,7.5,0,0,0-7.5-6.229H9.5A7.479,7.479,0,0,0,2.072,10.78,47.7,47.7,0,0,0,15.6,38.3,47.7,47.7,0,0,0,43.121,51.83a6.4,6.4,0,0,0,.976,0,7.487,7.487,0,0,0,7.5-7.5v-7.5a7.5,7.5,0,0,0-6.054-7.3Zm1.226,15.009A2.514,2.514,0,0,1,43.9,47a42.926,42.926,0,0,1-24.69-12.107A42.926,42.926,0,0,1,7,10.13,2.514,2.514,0,0,1,9.5,7.253h7.5a2.5,2.5,0,0,1,2.5,1.951,9.844,9.844,0,0,0,.375,2.051,27.517,27.517,0,0,0,1.151,3.852l-3.5,1.651a2.608,2.608,0,0,0-1.3,3.3A36.247,36.247,0,0,0,33.741,37.571a2.608,2.608,0,0,0,3.3-1.3l1.576-3.5a31.043,31.043,0,0,0,3.952,1.151c.65.15,1.351.275,2.026.375a2.5,2.5,0,0,1,1.951,2.5ZM32.015,2H30.264a2.511,2.511,0,1,0,.425,5h1.326A15.009,15.009,0,0,1,47.024,22.012v1.326a2.5,2.5,0,0,0,2.276,2.7h.2A2.5,2.5,0,0,0,52,23.763V22.012A20.012,20.012,0,0,0,32.015,2Zm5,20.012a2.5,2.5,0,0,0,5,0A10.006,10.006,0,0,0,32.015,12.006a2.5,2.5,0,0,0,0,5A5,5,0,0,1,37.018,22.012Z" transform="translate(-2.002 -2)" fill="#fff"/>
</svg>
