<svg xmlns="http://www.w3.org/2000/svg" width="25.087" height="25.086" viewBox="0 0 25.087 25.086">
  <g id="Group_12771" data-name="Group 12771" transform="translate(-816.158 360.301)">
    <path id="Path_3955" data-name="Path 3955" d="M816.158-23.669c.03-.073.063-.146.09-.22a1.554,1.554,0,0,1,1.45-1.051c.506-.008,1.012,0,1.518,0h20.352a1.575,1.575,0,0,1,1.633,1.2,1.568,1.568,0,0,1-1.092,1.876c-.062.018-.123.039-.185.059H817.481a1.657,1.657,0,0,1-1.018-.651,5.591,5.591,0,0,1-.305-.623Z" transform="translate(0 -313.409)" fill="#d95c14"/>
    <path id="Path_3956" data-name="Path 3956" d="M904.559-346.66v-.33q0-5.842,0-11.685a1.567,1.567,0,0,1,1.592-1.626,1.571,1.571,0,0,1,1.54,1.481c.005.1,0,.2,0,.294q0,5.769,0,11.538v.33c.1-.1.167-.153.228-.214.878-.877,1.749-1.761,2.635-2.63a1.559,1.559,0,0,1,2.6.568,1.537,1.537,0,0,1-.416,1.683l-2.6,2.6q-1.4,1.4-2.807,2.806a1.577,1.577,0,0,1-2.416,0q-2.7-2.7-5.406-5.4a1.539,1.539,0,0,1-.444-1.589,1.472,1.472,0,0,1,1.144-1.093,1.544,1.544,0,0,1,1.519.462q1.3,1.3,2.6,2.6C904.393-346.813,904.457-346.756,904.559-346.66Z" transform="translate(-77.424)" fill="#d95c14"/>
  </g>
</svg>
