<svg xmlns="http://www.w3.org/2000/svg" width="75.086" height="94.57" viewBox="0 0 75.086 94.57">
  <g id="Group_12785" data-name="Group 12785" transform="translate(-564.274 -513.859)">
    <path id="Path_4084" data-name="Path 4084" d="M564.277,561.066q0-17.341,0-34.683A12.45,12.45,0,0,1,574.071,514a4.908,4.908,0,0,1,1.1-.12q19.33-.009,38.659-.022a2.468,2.468,0,0,1,1.883.973q9.162,9.6,18.32,19.208c1.447,1.517,2.885,3.042,4.341,4.551a3.4,3.4,0,0,1,.99,2.5q-.019,27.237-.017,54.475a12.493,12.493,0,0,1-12.936,12.864q-24.694.008-49.388,0a12.4,12.4,0,0,1-12.408-9.745,14.7,14.7,0,0,1-.32-3.3Q564.258,578.223,564.277,561.066Zm47.151-42.719c-.36-.024-.628-.058-.9-.058q-16.7,0-33.393,0c-4.94.007-8.266,3.367-8.268,8.337q-.012,34.411,0,68.822c0,5.057,3.34,8.38,8.415,8.383q24.513.011,49.026,0c5.111,0,8.449-3.347,8.45-8.456q.006-25.808,0-51.616v-1.015c-4.369,0-8.591,0-12.813,0-6.264-.008-10.507-4.238-10.52-10.494-.009-4.286,0-8.572,0-12.858Zm4.666,3.53a5.587,5.587,0,0,0-.1.625c0,3.361-.063,6.724.015,10.083.08,3.416,2.295,5.533,5.719,5.57,2.991.032,5.982.009,8.973,0,.225,0,.449-.05.808-.092Z" fill="#d95c14"/>
    <path id="Path_4085" data-name="Path 4085" d="M695.435,709.592V708.53c0-7.644-.014-15.289.024-22.933a4.452,4.452,0,0,1,.553-2.077,1.983,1.983,0,0,1,2.364-.78,2.241,2.241,0,0,1,1.612,1.942,8.277,8.277,0,0,1,.021,1.016q0,11.467,0,22.933v.982l.33.245a4.882,4.882,0,0,1,.515-.842c2.787-3.006,5.594-5.995,8.38-9a2.483,2.483,0,0,1,2.1-.946,2.251,2.251,0,0,1,1.624,3.592,7.159,7.159,0,0,1-.6.7q-6.239,6.7-12.481,13.4c-1.55,1.663-2.723,1.673-4.272.011q-6.37-6.83-12.729-13.67a2.346,2.346,0,0,1-.615-2.618,2.106,2.106,0,0,1,1.891-1.415,2.717,2.717,0,0,1,2.234,1.089q4.12,4.439,8.243,8.876a5.819,5.819,0,0,1,.5.742Z" transform="translate(-95.931 -137.418)" fill="#d95c14"/>
    <path id="Path_4086" data-name="Path 4086" d="M673.905,913.372q9.11,0,18.22.005a4.3,4.3,0,0,1,1.274.133,2.27,2.27,0,0,1,1.586,2.338,2.346,2.346,0,0,1-1.953,2.05,4.315,4.315,0,0,1-.736.055q-18.405,0-36.81,0c-1.524,0-2.549-.772-2.7-1.983a2.3,2.3,0,0,1,2.436-2.593c4.254-.014,8.509-.005,12.763-.005Z" transform="translate(-72.057 -325.306)" fill="#d95c14"/>
  </g>
</svg>
