<svg xmlns="http://www.w3.org/2000/svg" width="34.65" height="25.543" viewBox="0 0 34.65 25.543">
  <g id="Group_12770" data-name="Group 12770" transform="translate(-490.259 -54.154)">
    <path id="Path_3953" data-name="Path 3953" d="M490.259,126.263q3.306,2.012,6.612,4.024,4.733,2.888,9.461,5.785a2.159,2.159,0,0,0,2.468,0q7.844-4.8,15.7-9.574c.114-.07.23-.136.406-.24v.392q0,6.312,0,12.624a5.12,5.12,0,0,1-5.343,5.312q-11.082.005-22.163,0a19.786,19.786,0,0,1-2.935-.109,5,5,0,0,1-4.143-4.216,1.018,1.018,0,0,0-.065-.183Z" transform="translate(0 -64.889)" fill="#d95c14"/>
    <path id="Path_3954" data-name="Path 3954" d="M509.5,54.155h12.01a5,5,0,0,1,4.434,2.33,10.161,10.161,0,0,1,.626,1.34c.119.256.028.39-.208.534q-6.194,3.769-12.377,7.556c-1.4.858-2.81,1.711-4.208,2.578a.416.416,0,0,1-.512,0q-8.322-5.085-16.654-10.152a.358.358,0,0,1-.195-.484,5.111,5.111,0,0,1,5.074-3.7Q503.49,54.149,509.5,54.155Z" transform="translate(-1.911)" fill="#d95c14"/>
  </g>
</svg>
