<svg xmlns="http://www.w3.org/2000/svg" width="83.781" height="83.766" viewBox="0 0 83.781 83.766">
  <g id="Group_12784" data-name="Group 12784" transform="translate(-25.125 -524.042)">
    <path id="Path_4080" data-name="Path 4080" d="M25.125,556.609a13.38,13.38,0,0,1,1.243-1.258q19.618-15.333,39.252-30.644c1.123-.877,1.644-.888,2.755-.022q8.157,6.361,16.31,12.726c.274.214.552.425.979.753,0-1.121,0-2.084,0-3.047,0-1.063-.012-2.127,0-3.19a1.634,1.634,0,0,1,1.756-1.813q4.622-.024,9.244,0c1.142.006,1.75.68,1.752,1.9.006,5.1.015,10.2-.013,15.294a1.5,1.5,0,0,0,.669,1.352c2.918,2.242,5.813,4.513,8.709,6.783,1.446,1.133,1.484,1.964.17,3.281-1.618,1.621-3.264,3.215-4.848,4.868-.882.92-1.77,1.465-3.048.55,0,2.92,0,5.723,0,8.527,0,1.39.009,2.781,0,4.171a1.646,1.646,0,1,1-3.266-.011c-.007-4.88.006-9.76-.023-14.64a1.457,1.457,0,0,0-.455-1.016Q81.8,549.794,67.254,538.463a2.951,2.951,0,0,0-.271-.16c-2.042,1.591-4.1,3.194-6.16,4.8q-11.474,8.956-22.949,17.909a1.292,1.292,0,0,0-.658,1.11q.029,20.978.017,41.957c0,.108.012.217.023.391h4.557v-.845q0-6.911,0-13.822c0-.245-.012-.492.01-.736a1.636,1.636,0,0,1,1.613-1.538,1.619,1.619,0,0,1,1.632,1.514c.045.6.017,1.2.017,1.8,0,4.524,0,9.047,0,13.632h51.7v-.861q0-6.788,0-13.576c0-.218-.007-.437,0-.654a1.648,1.648,0,0,1,1.632-1.689,1.624,1.624,0,0,1,1.628,1.688c.024,1.963.009,3.926.009,5.889,0,3.05,0,6.1,0,9.265h6.632c1.268,0,1.9.361,2.142,1.216.216.766-.114,1.391-1.084,2.056H25.125v-2.127a2.178,2.178,0,0,1,2.222-1.162c1.905.06,3.813.017,5.72.017h.853v-40.3c-1.476.624-1.781.557-2.955-.616-.905-.905-1.823-1.8-2.713-2.719-1.055-1.091-2.086-2.206-3.128-3.311Zm7.775,4.11c.156-.114.378-.265.588-.43q16.046-12.523,32.091-25.047c1.157-.9,1.7-.912,2.824-.034q15.369,12,30.736,23.993c.682.532,1.369,1.056,1.945,1.5l3.568-3.554L67.013,527.768l-37.658,29.4Zm62.207-15.176V533.436h-6.17c0,1.822.1,3.6-.033,5.353a3.085,3.085,0,0,0,1.54,3.157C92.041,543.008,93.495,544.283,95.107,545.542Z" fill="#d95c14"/>
    <path id="Path_4081" data-name="Path 4081" d="M172.121,704.685q0,7.6,0,15.2c0,1.521-.558,2.089-2.058,2.089q-15.289,0-30.578,0c-1.463,0-2.047-.574-2.047-2.016q0-15.327,0-30.654c0-1.409.585-2.005,1.974-2.005q15.371,0,30.742,0c1.386,0,1.966.6,1.966,2.014Q172.124,697,172.121,704.685Zm-31.356-14.076v12.33H153.1v-12.33Zm15.707,0v12.33H168.8v-12.33Zm-3.379,28.059V706.331H140.77v12.336Zm3.374-12.351v12.33h12.342v-12.33Z" transform="translate(-87.769 -127.584)" fill="#d95c14"/>
    <path id="Path_4082" data-name="Path 4082" d="M103.148,788.377a1.663,1.663,0,0,1-1.634-1.685,1.632,1.632,0,0,1,3.263-.005A1.663,1.663,0,0,1,103.148,788.377Z" transform="translate(-59.696 -204.016)" fill="#d95c14"/>
    <path id="Path_4083" data-name="Path 4083" d="M356.364,790.732a1.63,1.63,0,1,1-1.627-1.592A1.651,1.651,0,0,1,356.364,790.732Z" transform="translate(-256.311 -207.171)" fill="#d95c14"/>
  </g>
</svg>
