<svg id="Location" xmlns="http://www.w3.org/2000/svg" width="56" height="65.328" viewBox="0 0 56 65.328">
  <path id="Path_20" data-name="Path 20" d="M23.667,24.443a2.333,2.333,0,0,0-2.333-2.333A4.667,4.667,0,1,1,26,17.443a2.333,2.333,0,1,0,4.667,0,9.333,9.333,0,1,0-9.333,9.333A2.333,2.333,0,0,0,23.667,24.443Z" transform="translate(6.667 6.141)" fill="#fff"/>
  <path id="Path_21" data-name="Path 21" d="M45.58,45.374l3.1-3.1a23.59,23.59,0,1,0-33.367,0l3.1,3.1C9.413,47.311,4,51,4,55.664c0,7.653,14,11.667,28,11.667s28-4.013,28-11.667C60,51,54.587,47.311,45.58,45.374ZM32,62.664c-14,0-23.334-4.223-23.334-7,0-1.75,4.433-4.853,13.79-6.253l1.983,1.983a2.333,2.333,0,0,0,3.29-3.29l-9.123-9.123a18.923,18.923,0,1,1,26.764,0L30.344,54.007a2.333,2.333,0,1,0,3.29,3.29l7.91-7.91c9.333,1.4,13.79,4.5,13.79,6.253C55.334,58.441,46,62.664,32,62.664Z" transform="translate(-4 -2.002)" fill="#fff"/>
</svg>
