<svg xmlns="http://www.w3.org/2000/svg" width="18.919" height="34.499" viewBox="0 0 18.919 34.499">
  <path id="Path_4098" data-name="Path 4098" d="M105.767,46.365a4.1,4.1,0,0,1-1.928-.889,3.493,3.493,0,0,1-1.249-2.483q-.013-.235-.013-.471,0-13.4-.007-26.808a3.641,3.641,0,0,1,1.495-3.112,3.36,3.36,0,0,1,2.026-.722c3.986-.01,7.972-.025,11.958.005a3.546,3.546,0,0,1,3.429,3.374c.007.146.011.292.011.437q-.007,13.455-.017,26.909a3.6,3.6,0,0,1-2.528,3.579c-.234.073-.475.122-.712.181ZM104.491,17V40.954H119.8V17Zm7.468,28.289a1.622,1.622,0,0,0,1.617-1.594,1.612,1.612,0,1,0-3.223-.008A1.618,1.618,0,0,0,111.959,45.29Zm.09-30.186c.527,0,1.054,0,1.581,0,.42,0,.67-.215.663-.549s-.249-.525-.65-.527q-1.565-.006-3.129,0c-.425,0-.664.207-.658.548s.238.523.646.527C111.017,15.108,111.533,15.1,112.049,15.1Zm-2.784-.539a.534.534,0,0,0-1.067.015.534.534,0,1,0,1.067-.015Z" transform="translate(-102.571 -11.866)" fill="#fff"/>
</svg>
