<svg xmlns="http://www.w3.org/2000/svg" width="81.396" height="95.938" viewBox="0 0 81.396 95.938">
  <path id="Path_4079" data-name="Path 4079" d="M-346.706,117.168h-1.686c-1.447-.6-2.639-1.471-2.882-3.129a1.518,1.518,0,0,0-1.013-1.271,32.251,32.251,0,0,0-10.558-3.028,1.388,1.388,0,0,1-1.4-1.541,1.382,1.382,0,0,1,1.774-1.2c2.59.53,5.176,1.087,7.737,1.739a29.988,29.988,0,0,1,3.352,1.282c0-8.073,0-16.065-.013-24.056a.8.8,0,0,0-.3-.6c-.662-.363-1.36-.661-2.136-1.026,0,5.536,0,10.9,0,16.274a4.452,4.452,0,0,1-.046,1.026,1.308,1.308,0,0,1-1.409,1.113,1.315,1.315,0,0,1-1.333-1.2,4.731,4.731,0,0,1-.022-.841c0-5.527-.014-11.053.017-16.58a.92.92,0,0,0-.815-1.076,31.523,31.523,0,0,0-16.74-.1.976.976,0,0,0-.874,1.144c.028,5.527.018,11.053.011,16.58a4.12,4.12,0,0,1-.108,1.109,1.253,1.253,0,0,1-1.417.963,1.273,1.273,0,0,1-1.252-1.171,6.19,6.19,0,0,1-.028-.935q0-7.634,0-15.269c0-.325-.03-.651-.052-1.106-.574.25-1.01.483-1.473.633-.94.3-1.191.9-1.185,1.883.046,7.369.025,14.738.025,22.106v1.105a37.919,37.919,0,0,1,3.924-1.458c2.412-.609,4.857-1.09,7.3-1.561a1.327,1.327,0,0,1,1.637,1.147,1.339,1.339,0,0,1-1.118,1.574,9.3,9.3,0,0,1-1.018.155,29.583,29.583,0,0,0-10.141,3.1c-.244.125-.557.4-.58.626a4.083,4.083,0,0,1-3.09,3.594h-1.5a4.08,4.08,0,0,1-3.089-3.589,1.052,1.052,0,0,0-.567-.642,30.785,30.785,0,0,0-28.01.02c-.226.109-.535.339-.554.538a4.258,4.258,0,0,1-3.009,3.673h-1.687c-2.228-.822-3.036-2.419-3.033-4.779q.066-42.329.029-84.659c0-.312-.006-.624,0-.936a3.8,3.8,0,0,1,3.976-3.729,4.1,4.1,0,0,1,3.122,1.72,34.14,34.14,0,0,1,30.295-.02c2.051-2.418,4.763-2.175,6.614,0a34.058,34.058,0,0,1,15.076-3.521,33.958,33.958,0,0,1,15.14,3.573c.19-.216.328-.385.477-.542a3.689,3.689,0,0,1,3.763-1.1,3.617,3.617,0,0,1,2.768,2.876,7.217,7.217,0,0,1,.1,1.581q.006,42.33.033,84.659C-343.669,114.675-344.417,116.338-346.706,117.168Zm-70.656-7.112a34.267,34.267,0,0,1,29.038-.072,1.209,1.209,0,0,0,.106-.308q.01-11.848,0-23.7a.817.817,0,0,0-.281-.621c-.667-.376-1.372-.683-2.21-1.086v1.177q0,7.587,0,15.174a6.5,6.5,0,0,1-.027.935,1.277,1.277,0,0,1-1.239,1.186,1.255,1.255,0,0,1-1.428-.946,3.924,3.924,0,0,1-.112-1.108c-.006-5.526-.015-11.053.01-16.579,0-.639-.147-.965-.812-1.082-1.779-.314-3.549-.677-5.322-1.025-.947-.186-1.453-.8-1.322-1.6a1.436,1.436,0,0,1,1.738-1.158,32.923,32.923,0,0,1,10.083,2.674c.268.119.552.2.828.3a1.11,1.11,0,0,0,.091-.256q.01-11.848.006-23.7c0-.2-.058-.509-.191-.581-.715-.39-1.462-.72-2.3-1.122,0,5.546,0,10.883,0,16.221a7.881,7.881,0,0,1-.026,1.029,1.279,1.279,0,0,1-1.23,1.2,1.254,1.254,0,0,1-1.434-.938,3.863,3.863,0,0,1-.115-1.107c-.006-5.526-.015-11.053.01-16.579,0-.636-.161-.916-.805-1.095a31.486,31.486,0,0,0-16.738-.06c-.707.187-.832.536-.829,1.181.021,5.464.012,10.928.011,16.392,0,.312.01.626-.02.936a1.279,1.279,0,0,1-1.257,1.27,1.292,1.292,0,0,1-1.473-1.136,4.982,4.982,0,0,1-.057-1.025q0-7.587,0-15.174V56.518c-.6.264-1.068.509-1.561.674A1.577,1.577,0,0,0-417.39,59c.051,7.4.028,14.8.028,22.2v1.091c.257-.086.434-.128.6-.2a33.177,33.177,0,0,1,10.515-2.848c1.043-.108,1.716.285,1.846,1.116.14.895-.372,1.462-1.459,1.659-1.716.312-3.426.659-5.146.952-.695.118-.875.46-.871,1.143.028,5.5.016,10.99.014,16.485,0,.343.105.773-.059,1.01a2.786,2.786,0,0,1-1.189,1.105,1.132,1.132,0,0,1-1.435-.878,4.112,4.112,0,0,1-.122-1.2q-.011-7.587-.005-15.174V84.243a17.785,17.785,0,0,1-1.71.753c-.832.262-1,.791-1,1.618.039,5.4.02,10.8.02,16.2Zm65.983-55.482c0-1.938-.007-3.773,0-5.607.006-1.1.523-1.718,1.411-1.717s1.391.6,1.394,1.719c.007,2.715,0,5.431,0,8.147a6.924,6.924,0,0,0,.012.749.986.986,0,0,0,1.03,1,.974.974,0,0,0,1.008-1.014c.013-.186.007-.374.007-.562q0-14.937,0-29.873c0-.218.077-.5-.031-.642-.263-.333-.628-.843-.924-.825-.374.023-.775.455-1.054.8-.14.173-.045.543-.045.823q0,7.07,0,14.14a7.553,7.553,0,0,1-.014.842,1.316,1.316,0,0,1-1.361,1.279,1.324,1.324,0,0,1-1.394-1.143,4.281,4.281,0,0,1-.04-.933c0-4.432,0-8.865-.014-13.3,0-.3-.086-.748-.289-.875a21.742,21.742,0,0,0-2.151-1.062v1.209q0,8.756,0,17.512a3.822,3.822,0,0,1-.048.931,1.316,1.316,0,0,1-1.42,1.1,1.319,1.319,0,0,1-1.32-1.219,5.108,5.108,0,0,1-.021-.841q0-9.411.009-18.823c0-.585-.06-.957-.743-1.145a31.444,31.444,0,0,0-16.825-.091.974.974,0,0,0-.853,1.147c.027,6.274.018,12.548.011,18.823a4.341,4.341,0,0,1-.118,1.2,1.249,1.249,0,0,1-1.43.943,1.281,1.281,0,0,1-1.232-1.2,7.217,7.217,0,0,1-.026-.935q0-8.8,0-17.605c0-.327-.027-.654-.047-1.089-.558.245-1,.475-1.46.633a1.657,1.657,0,0,0-1.2,1.877c.048,8.147.027,16.294.027,24.441v1.165A34.362,34.362,0,0,1-351.379,54.574Zm-39.329-28.087V27.71q0,8.943,0,17.887c0,1.061-.494,1.658-1.337,1.688-.883.031-1.434-.6-1.468-1.677-.008-.25,0-.5,0-.749,0-6.181-.011-12.362.016-18.542,0-.64-.169-.935-.8-1.106a31.477,31.477,0,0,0-16.465-.114c-.808.212-1.134.5-1.126,1.421.054,6.18.028,12.362.027,18.542,0,.312.009.626-.019.936a1.284,1.284,0,0,1-1.255,1.274,1.294,1.294,0,0,1-1.475-1.135,4.95,4.95,0,0,1-.058-1.024q0-8.709,0-17.419V26.438c-.642.291-1.158.575-1.708.762-.8.272-1,.769-1,1.606.036,8.241.022,16.482.024,24.724,0,.323.029.647.047,1.028a34.318,34.318,0,0,1,29.109,0V41.25c0-4.246.009-8.491-.017-12.736a1.383,1.383,0,0,0-.4-1.014A15.54,15.54,0,0,0-390.708,26.488Zm39.237,55.782c.039-.088.061-.115.061-.141q.016-11.938.015-23.877a.887.887,0,0,0-.362-.656c-.636-.364-1.315-.652-2.075-1.016v1.184q0,7.632,0,15.264a3.389,3.389,0,0,1-.059.929,1.317,1.317,0,0,1-1.456,1.054,1.319,1.319,0,0,1-1.268-1.17,4.373,4.373,0,0,1-.025-.841q0-7.164,0-14.328V55.609c-.175-.074-.286-.134-.4-.169a31.068,31.068,0,0,0-17.357-.158c-.642.176-.639.536-.638,1.026q.009,8.334,0,16.669c0,.4.046.912-.171,1.172a2.008,2.008,0,0,1-1.3.806c-.435-.018-.918-.507-1.244-.9-.177-.213-.09-.66-.09-1q-.006-7.726,0-15.452c0-.324-.027-.647-.048-1.089a15.857,15.857,0,0,1-1.485.654c-.949.3-1.183.911-1.177,1.887.045,7.367.024,14.734.024,22.1V82.3A34.306,34.306,0,0,1-351.471,82.27Zm-70.758-39.945c0,5.022.006,10.044-.006,15.067,0,.764.13,1.464,1.029,1.462s1.071-.7,1.034-1.466c0-.093,0-.187,0-.281q0-14.739,0-29.478c0-.341.087-.774-.084-1a1.619,1.619,0,0,0-1.045-.684c-.3,0-.664.443-.881.77-.132.2-.043.546-.043.826Q-422.23,34.932-422.229,42.325Zm36.836.039q0,7.4,0,14.8c0,.765-.056,1.588,1,1.7.724.077,1.049-.494,1.049-1.738q0-14.753,0-29.507c0-.311.083-.7-.069-.916-.236-.335-.644-.765-.971-.759s-.715.453-.94.8c-.147.223-.061.606-.061.918Q-385.395,35.011-385.393,42.364ZM-422.186,61.65c-.013.2-.04.419-.041.633q0,11.463,0,22.926c0,.156-.059.37.021.457.3.338.653.879.987.881s.719-.513,1.013-.859c.11-.13.035-.422.035-.64q0-11.322,0-22.645c0-.263-.037-.527-.053-.754Zm73.669,0c-.016.187-.049.4-.049.614q0,11.462,0,22.925c0,.187-.059.448.038.547.32.323.686.787,1.06.811.294.019.661-.5.924-.841.108-.138.032-.423.032-.641q0-11.322,0-22.644c0-.271-.028-.542-.041-.77Zm-73.674,27.739c-.013.216-.036.43-.036.645q0,11.456,0,22.912c0,.187-.062.442.034.547.29.316.623.757.98.8.3.034.708-.382.955-.69.144-.179.083-.538.083-.816q.005-11.316,0-22.632c0-.264-.035-.528-.052-.765Zm73.672,0c-.017.184-.047.365-.047.547q0,11.5,0,23.006c0,.186-.057.441.04.547.291.318.671.827.969.8.369-.038.723-.513,1.015-.858.109-.129.03-.422.03-.64q0-11.316,0-22.631c0-.268-.03-.535-.044-.767ZM-385.325,61.66a3.054,3.054,0,0,0-.061.41q-.005,11.615-.006,23.229c0,.7.216,1.291,1.012,1.3s1.034-.571,1.03-1.279c0-.156,0-.312,0-.468q0-11.1,0-22.2c0-.333-.028-.666-.042-.989Zm-.021,27.742c-.019.263-.044.448-.045.632q0,11.423,0,22.847c0,.156,0,.313.017.467a.956.956,0,0,0,1.024.989.968.968,0,0,0,.989-1.029c.016-.217.014-.436.014-.655q0-11.142,0-22.285c0-.33-.031-.66-.046-.966Z" transform="translate(425.068 -21.23)" fill="#d95c14"/>
</svg>
