<svg xmlns="http://www.w3.org/2000/svg" width="75.149" height="78.455" viewBox="0 0 75.149 78.455">
  <g id="Group_12786" data-name="Group 12786" transform="translate(-1192.337 -524.479)">
    <path id="Path_4087" data-name="Path 4087" d="M1402.115,712.422c0-2.7.028-5.407-.023-8.109a3.334,3.334,0,0,0-.5-1.664,13.666,13.666,0,0,1,9.723-21.037,12.939,12.939,0,0,1,13.254,6.274c3.025,4.81,2.9,9.793-.059,14.656a3.474,3.474,0,0,0-.565,1.918c.023,5.349,0,10.7.023,16.047a2.922,2.922,0,0,1-1.459,2.9,2.963,2.963,0,0,1-3.3-.42c-1.835-1.286-3.714-2.509-5.552-3.792a.886.886,0,0,0-1.2-.011c-1.884,1.317-3.809,2.574-5.7,3.882a2.881,2.881,0,0,1-3.156.353,2.829,2.829,0,0,1-1.483-2.8C1402.128,717.886,1402.115,715.154,1402.115,712.422Zm2.8-17.333a8.134,8.134,0,1,0,8.16-8.063A8.086,8.086,0,0,0,1404.912,695.089Zm13.461,20.653V707.79a14.015,14.015,0,0,1-10.658.009v7.934c1.229-.832,2.339-1.586,3.451-2.336a2.907,2.907,0,0,1,3.737-.007C1416.024,714.141,1417.136,714.9,1418.373,715.742Z" transform="translate(-159.292 -120.81)" fill="#d95c14"/>
    <path id="Path_4088" data-name="Path 4088" d="M1314.847,543.872A19.331,19.331,0,1,1,1295.6,524.48,19.338,19.338,0,0,1,1314.847,543.872Zm-5.524-.04a13.807,13.807,0,1,0-13.839,13.795A13.8,13.8,0,0,0,1309.323,543.832Z" transform="translate(-64.516 0)" fill="#d95c14"/>
    <path id="Path_4089" data-name="Path 4089" d="M1197.907,743.737h1.065q14.759,0,29.517,0a2.762,2.762,0,0,1,2.851,3.669,2.691,2.691,0,0,1-2.386,1.841,5.992,5.992,0,0,1-.69.011H1195.64c-2.274,0-3.321-1.039-3.3-3.33a54.688,54.688,0,0,1,.486-9.894c1.99-10.432,11.194-18.943,21.772-19.724,4.751-.351,9.543-.175,14.316-.179a2.7,2.7,0,0,1,2.593,2.8,2.754,2.754,0,0,1-2.8,2.693c-3.855.02-7.71-.011-11.565.012a18.72,18.72,0,0,0-11.966,4.21,19.025,19.025,0,0,0-7.305,14.818c-.029.891-.006,1.784,0,2.676C1197.862,743.43,1197.881,743.515,1197.907,743.737Z" transform="translate(0 -147.435)" fill="#d95c14"/>
  </g>
</svg>
