<svg xmlns="http://www.w3.org/2000/svg" width="56.714" height="53.723" viewBox="0 0 56.714 53.723">
  <path id="Path_4092" data-name="Path 4092" d="M42.263-376.264q-7.115,1.341-10,10.312a28.193,28.193,0,0,0-1.444,8.765,6.326,6.326,0,0,0,.052.876q.052.361.155,1.6h11.24v22.479H20.3V-352.96q0-15.261,6.084-23.51a22.58,22.58,0,0,1,15.88-9.487Zm34.75,0a11.561,11.561,0,0,0-8.61,6.393,26.151,26.151,0,0,0-2.939,12.58q0,.619.052,1.237a7.037,7.037,0,0,0,.258,1.34h11.24v22.479H54.947V-352.96A45.736,45.736,0,0,1,60.1-374.872q5.156-9.641,16.911-11.085Z" transform="translate(77.013 -332.233) rotate(180)" fill="#2b2a68" opacity="0.368"/>
</svg>
